<?xml version="1.0" encoding="UTF-8"?>
<svg width="18px" height="18px" viewBox="0 0 24 24" version="1.1" xmlns="http://www.w3.org/2000/svg" xmlns:xlink="http://www.w3.org/1999/xlink">
    <title>699EE447-7C8F-4737-A58B-46850762520A</title>
    <g id="Symbols" stroke="none" stroke-width="1" fill="none" fill-rule="evenodd">
        <g id="atoms/icons/filter_24px" fill="#99ACC2">
            <path d="M13.9,21.9999978 C13.6836298,21.9999978 13.4730962,21.9298221 13.3,21.8 L9.3,18.75 C9.05195795,18.5590686 8.90762843,18.263008 8.91,17.95 L8.91,14.68 L4.11,5.46 C3.9492279,5.14967014 3.96214075,4.77792081 4.14405822,4.47949439 C4.32597569,4.18106798 4.65049784,3.99927226 5,3.99999782 L19,3.99999782 C19.3530673,3.99999782 19.6799357,4.18630055 19.86,4.49 C20.0386328,4.79940108 20.0386328,5.18059892 19.86,5.49 L14.86,14.7 L14.86,20.9999978 C14.8626457,21.3801569 14.6495038,21.7289345 14.31,21.9 C14.1820032,21.9621201 14.0422243,21.9962125 13.9,21.9999978 Z M10.9,17.46 L12.9,18.99 L12.9,14.44 C12.8993764,14.2876302 12.9335803,14.1371327 13,14 L17.3,6 L6.64,6 L10.77,14 C10.8429218,14.1423316 10.8806435,14.3000767 10.88,14.46 L10.9,17.46 Z" id="Shape"></path>
        </g>
    </g>
</svg>