<?xml version="1.0" encoding="UTF-8"?>
<svg width="105px" height="27px" viewBox="0 0 105 27" version="1.1" xmlns="http://www.w3.org/2000/svg" xmlns:xlink="http://www.w3.org/1999/xlink">
    <!-- Generator: Sketch 62 (91390) - https://sketch.com -->
    <title>Skyfow</title>
    <desc>Created with Sketch.</desc>
    <g id="Symbols" stroke="none" stroke-width="1" fill="none" fill-rule="evenodd">
        <g id="⚙️Atoms/Logo/Light" transform="translate(-1.000000, -5.000000)" fill="#0096FF" fill-rule="nonzero">
            <g id="Skyflow-Logo">
                <path d="M8.568,26.14 C10.1173333,26.14 11.424,25.9066667 12.488,25.44 C13.552,24.9733333 14.3406667,24.348 14.854,23.564 C15.3673333,22.78 15.624,21.912 15.624,20.96 C15.624,19.8026667 15.3206667,18.8833333 14.714,18.202 C14.1073333,17.5206667 13.3746667,17.012 12.516,16.676 C11.6573333,16.34 10.5093333,15.9946667 9.072,15.64 C7.784,15.3226667 6.76666667,15.024 6.02,14.744 C5.27333333,14.464 4.648,14.0626667 4.144,13.54 C3.64,13.0173333 3.388,12.3173333 3.388,11.44 C3.388,10.2826667 3.85466667,9.34 4.788,8.612 C5.72133333,7.884 7.09333333,7.52 8.904,7.52 C9.81866667,7.52 10.7473333,7.66 11.69,7.94 C12.6326667,8.22 13.496,8.63066667 14.28,9.172 L14.28,9.172 L14.812,8.024 C14.0466667,7.48266667 13.1413333,7.05333333 12.096,6.736 C11.0506667,6.41866667 9.98666667,6.26 8.904,6.26 C7.35466667,6.26 6.062,6.49333333 5.026,6.96 C3.99,7.42666667 3.22,8.05666667 2.716,8.85 C2.212,9.64333333 1.96,10.516 1.96,11.468 C1.96,12.644 2.26333333,13.582 2.87,14.282 C3.47666667,14.982 4.214,15.5 5.082,15.836 C5.95,16.172 7.10266667,16.5173333 8.54,16.872 C9.80933333,17.1706667 10.8173333,17.46 11.564,17.74 C12.3106667,18.02 12.936,18.4213333 13.44,18.944 C13.944,19.4666667 14.196,20.1666667 14.196,21.044 C14.196,22.1826667 13.72,23.1066667 12.768,23.816 C11.816,24.5253333 10.4066667,24.88 8.54,24.88 C7.252,24.88 6.02466667,24.6513333 4.858,24.194 C3.69133333,23.7366667 2.76266667,23.144 2.072,22.416 L2.072,22.416 L1.428,23.48 C2.156,24.264 3.16866667,24.9033333 4.466,25.398 C5.76333333,25.8926667 7.13066667,26.14 8.568,26.14 Z M21.55,26 L21.55,21.66 L25.358,18.188 L31.574,26 L33.31,26 L26.394,17.292 L32.694,11.384 L30.902,11.384 L21.55,19.924 L21.55,5.224 L20.15,5.224 L20.15,26 L21.55,26 Z M35.68,31.544 C36.688,31.544 37.5606667,31.2733333 38.298,30.732 C39.0353333,30.1906667 39.684,29.276 40.244,27.988 L40.244,27.988 L47.748,11.384 L46.32,11.384 L40.468,24.46 L34.616,11.384 L33.132,11.384 L39.712,25.944 L38.928,27.708 C38.4986667,28.66 38.032,29.332 37.528,29.724 C37.024,30.116 36.4173333,30.312 35.708,30.312 C34.644,30.312 33.7386667,29.9293333 32.992,29.164 L32.992,29.164 L32.292,30.228 C32.7026667,30.6573333 33.202,30.984 33.79,31.208 C34.378,31.432 35.008,31.544 35.68,31.544 Z M53.03,26 L53.03,12.588 L57.678,12.588 L57.678,11.384 L53.002,11.384 L53.002,9.256 C53.002,7.296 53.9166667,6.316 55.746,6.316 C56.6606667,6.316 57.4166667,6.58666667 58.014,7.128 L58.014,7.128 L58.574,6.064 C58.238,5.74666667 57.8133333,5.50866667 57.3,5.35 C56.7866667,5.19133333 56.25,5.112 55.69,5.112 C54.402,5.112 53.4033333,5.476 52.694,6.204 C51.9846667,6.932 51.63,7.912 51.63,9.144 L51.63,9.144 L51.63,11.384 L48.942,11.384 L48.942,12.588 L51.63,12.588 L51.63,26 L53.03,26 Z M61.934,26 L61.934,5.224 L60.534,5.224 L60.534,26 L61.934,26 Z M73.684,26.112 C75.0653333,26.112 76.3113333,25.7946667 77.422,25.16 C78.5326667,24.5253333 79.4053333,23.6433333 80.04,22.514 C80.6746667,21.3846667 80.992,20.1106667 80.992,18.692 C80.992,17.2733333 80.6746667,15.9993333 80.04,14.87 C79.4053333,13.7406667 78.5326667,12.8586667 77.422,12.224 C76.3113333,11.5893333 75.0653333,11.272 73.684,11.272 C72.3026667,11.272 71.0566667,11.5893333 69.946,12.224 C68.8353333,12.8586667 67.9626667,13.7406667 67.328,14.87 C66.6933333,15.9993333 66.376,17.2733333 66.376,18.692 C66.376,20.1106667 66.6933333,21.3846667 67.328,22.514 C67.9626667,23.6433333 68.8353333,24.5253333 69.946,25.16 C71.0566667,25.7946667 72.3026667,26.112 73.684,26.112 Z M73.684,24.852 C72.564,24.852 71.5606667,24.5906667 70.674,24.068 C69.7873333,23.5453333 69.0873333,22.8173333 68.574,21.884 C68.0606667,20.9506667 67.804,19.8866667 67.804,18.692 C67.804,17.4973333 68.0606667,16.4333333 68.574,15.5 C69.0873333,14.5666667 69.7873333,13.8386667 70.674,13.316 C71.5606667,12.7933333 72.564,12.532 73.684,12.532 C74.804,12.532 75.8073333,12.7933333 76.694,13.316 C77.5806667,13.8386667 78.2806667,14.5666667 78.794,15.5 C79.3073333,16.4333333 79.564,17.4973333 79.564,18.692 C79.564,19.8866667 79.3073333,20.9506667 78.794,21.884 C78.2806667,22.8173333 77.5806667,23.5453333 76.694,24.068 C75.8073333,24.5906667 74.804,24.852 73.684,24.852 Z M89.186,26 L94.142,13.316 L99.07,26 L100.386,26 L105.93,11.384 L104.642,11.384 L99.714,24.404 L94.758,11.384 L93.554,11.384 L88.57,24.432 L83.698,11.384 L82.354,11.384 L87.898,26 L89.186,26 Z" id="Skyfow"></path>
            </g>
        </g>
    </g>
</svg>